<svg t="1686626702838" class="icon" viewBox="0 0 1024 1024" version="1.1"
  xmlns="http://www.w3.org/2000/svg" p-id="20570" width="128" height="128">
  <path
    d="M402.048 649.54368c-5.600256 13.079552 0 19.600384 16.799744 19.600384h296.800256l16.799744-134.4H424.448L402.048 649.54368zM533.648384 551.543808c14.918656-7.438336 28.918784-3.720192 42.000384 11.200512 13.037568 14.961664 22.4 30.799872 28.000256 47.599616 9.319424 18.679808 7.437312 32.679936-5.600256 42.000384-18.680832 7.48032-32.68096 2.799616-42.000384-14.000128-3.762176-13.037568-13.080576-28.919808-28.000256-47.599616C518.685696 575.823872 520.566784 562.74432 533.648384 551.543808z"
    fill="#57a0ff" p-id="20571"></path>
  <path
    d="M729.648128 363.943936H472.047616c-13.080576 0-21.481472 4.67968-25.199616 14.000128l-14.000128 103.600128H738.048l8.399872-95.200256C748.285952 373.306368 742.685696 365.824 729.648128 363.943936zM600.848384 473.14432c-16.799744 7.48032-29.881344 2.799616-39.199744-14.000128-1.881088-7.438336-8.399872-18.637824-19.600384-33.599488-3.762176-7.438336-6.562816-12.120064-8.399872-14.000128-11.200512-14.91968-8.399872-27.037696 8.399872-36.400128 14.918656-7.438336 28.000256-3.720192 39.199744 11.200512 13.037568 14.961664 22.4 29.88032 28.000256 44.8C618.566656 449.823744 615.76704 463.823872 600.848384 473.14432z"
    fill="#57a0ff" p-id="20572"></path>
  <path
    d="M369.664 46.592c-169.662464 0-307.2 137.537536-307.2 307.2v598.016h598.016c169.662464 0 307.2-137.537536 307.2-307.2v-598.016H369.664zM402.048 184.743936c5.600256-18.637824 17.719296-28.000256 36.400128-28.000256 16.799744 1.880064 24.237056 12.162048 22.4 30.799872 0 5.600256-0.96256 10.279936-2.799616 14.000128 0 3.762176 0 6.561792 0 8.399872h350.000128c16.799744 0 25.199616 9.362432 25.199616 28.000256-1.881088 18.679808-11.200512 28.000256-28.000256 28.000256H435.648512c-18.680832 35.479552-45.76256 65.36192-81.200128 89.6-16.799744 11.200512-30.799872 10.279936-42.000384-2.799616-11.200512-13.037568-10.28096-26.120192 2.799616-39.199744C363.766784 279.944192 392.685568 237.024256 402.048 184.743936zM203.247616 181.94432c11.200512-13.037568 26.119168-14.000128 44.8-2.799616 26.119168 16.799744 50.400256 37.361664 72.800256 61.599744 13.037568 14.961664 14.000128 28.961792 2.799616 42.000384-13.080576 11.200512-27.080704 11.200512-42.000384 0-16.799744-18.637824-39.199744-37.31968-67.2-56.000512C197.648384 211.823616 193.885184 196.905984 203.247616 181.94432zM189.247488 344.343552c13.037568-11.200512 27.037696-11.200512 42.000384 0 29.837312 22.4 53.199872 42.96192 69.999616 61.599744 14.918656 14.961664 16.799744 29.88032 5.600256 44.8-13.080576 11.200512-27.080704 10.279936-42.000384-2.799616-11.200512-11.200512-27.080704-25.199616-47.599616-42.000384-11.200512-7.438336-19.600384-14.000128-25.199616-19.600384C178.966528 373.306368 178.048 359.30624 189.247488 344.343552zM315.247616 571.144192c-22.4 82.161664-48.562176 154.96192-78.399488 218.399744-11.200512 20.517888-26.162176 26.118144-44.8 16.799744-16.799744-9.362432-20.562944-25.199616-11.200512-47.599616 33.599488-69.03808 59.718656-138.120192 78.399488-207.200256 5.600256-20.519936 18.637824-28.919808 39.199744-25.199616C315.247616 533.823488 320.847872 548.744192 315.247616 571.144192zM813.647872 669.144064c18.637824 0 28.918784 8.399872 30.799872 25.199616-1.881088 18.679808-12.162048 28.000256-30.799872 28.000256h-44.8c-5.600256 48.518144-19.600384 78.399488-42.000384 89.6-18.680832 11.200512-63.480832 12.118016-134.4 2.799616-22.4-3.762176-32.68096-14.961664-30.799872-33.599488 3.719168-18.681856 16.799744-27.081728 39.199744-25.199616 48.519168 7.438336 76.519424 9.3184 83.999744 5.600256 11.200512-1.882112 19.600384-14.91968 25.199616-39.199744H388.047872c-39.199744 0-54.162432-20.519936-44.8-61.599744l25.199616-126.000128h-36.400128c-14.962688 0-23.36256-9.320448-25.199616-28.000256 1.837056-16.799744 10.237952-25.199616 25.199616-25.199616h44.8l19.600384-120.399872c5.600256-33.599488 28.000256-50.400256 67.2-50.400256h277.199872c44.8 1.880064 66.23744 23.361536 64.400384 64.400384l-11.200512 106.399744h30.799872c14.918656 0 23.318528 8.399872 25.199616 25.199616-3.762176 18.679808-13.080576 28.000256-28.000256 28.000256h-33.599488l-14.000128 134.4H813.647872z"
    fill="#57a0ff" p-id="20573"></path>
</svg>