<svg t="1686118459027" class="icon" viewBox="0 0 1024 1024" version="1.1"
  xmlns="http://www.w3.org/2000/svg" p-id="30387" width="128" height="128">
  <path
    d="M936.533333 281.6v454.4c0 14.933333-8.533333 29.866667-21.333333 36.266667L533.333333 992h-2.133333c-2.133333 0-4.266667 2.133333-6.4 2.133333-2.133333 0-2.133333 0-4.266667 2.133334h-21.333333c-2.133333 0-2.133333 0-4.266667-2.133334-2.133333 0-4.266667-2.133333-6.4-2.133333h-2.133333L106.666667 770.133333c-12.8-8.533333-21.333333-21.333333-21.333334-36.266666V290.133333v-2.133333-8.533333-2.133334c0-2.133333 2.133333-6.4 4.266667-8.533333v-2.133333l6.4-6.4 2.133333-2.133334c2.133333-2.133333 4.266667-2.133333 6.4-4.266666l2.133334-2.133334L490.666667 32c12.8-8.533333 29.866667-8.533333 42.666666 0l384 221.866667 2.133334 2.133333c2.133333 2.133333 4.266667 2.133333 6.4 4.266667l2.133333 2.133333 6.4 6.4v2.133333c2.133333 2.133333 2.133333 6.4 4.266667 8.533334-2.133333 0-2.133333 0-2.133334 2.133333z m-83.2 426.666667V364.8l-298.666666 172.8v345.6l298.666666-174.933333zM512 462.933333l298.666667-172.8-106.666667-61.866666-298.666667 172.8 106.666667 61.866666z m-42.666667 418.133334V537.6L170.666667 364.8v345.6l298.666666 170.666667z m42.666667-763.733334l-298.666667 172.8 106.666667 61.866667 298.666667-172.8-106.666667-61.866667z"
    fill="#cdcdcd" p-id="30388"></path>
</svg>